<?xml version="1.0" encoding="utf-8"?>
<!-- Generator: Adobe Illustrator 24.0.0, SVG Export Plug-In . SVG Version: 6.00 Build 0)  -->
<svg version="1.1" id="Layer_1" xmlns="http://www.w3.org/2000/svg" xmlns:xlink="http://www.w3.org/1999/xlink" x="0px" y="0px"
	 viewBox="0 0 500 500" enable-background="new 0 0 500 500" xml:space="preserve">
<path fill="#F47621" d="M249.576,0.082C113.071-0.049-0.456,110.781,0.001,250.438c0.454,138.797,111.353,249.524,250.092,249.48
	c138.599-0.044,250.295-110.613,249.905-250.894C499.613,109.746,386.809-0.186,249.576,0.082z"/>
<g>
	<path fill="#FFFFFF" d="M111.024,260.594c0-4.361-0.001-7.482,0-10.602c0.013-42.559,0.166-85.119-0.108-127.676
		c-0.043-6.624,1.991-8.577,8.415-8.271c9.661,0.461,19.362,0.048,29.046,0.052c9.485,0.004,9.48,0.029,9.415,9.252
		c-0.02,2.837-0.003,5.675-0.003,10.361c17.139-15.395,35.608-22.497,56.931-22.888c21.775-0.4,40.728,4.316,53.858,27.739
		c2.04-3.56,2.909-6.072,4.575-7.832c25.063-26.487,78.273-24.818,96.964-6.508c8.784,8.605,14.538,18.501,14.66,30.759
		c0.333,33.547,0.15,67.099,0.245,100.649c0.009,3.304-0.951,4.991-4.587,4.954c-13.06-0.132-26.123-0.23-39.181-0.036
		c-5.61,0.083-5.318-3.418-5.315-7.177c0.014-24.319-0.652-48.66,0.168-72.951c0.737-21.843-8.437-31.986-31.82-31.082
		c-18.488,0.715-31.379,13.46-31.565,32.45c-0.225,22.966-0.03,45.936-0.041,68.904c-0.005,9.773-0.033,9.783-9.546,9.81
		c-10.584,0.03-21.182-0.276-31.748,0.179c-6.103,0.263-8.349-1.537-8.267-7.892c0.311-24.09,0.047-48.187,0.193-72.281
		c0.162-26.815-22.434-40.165-46.559-27.387c-10.658,5.645-16.468,14.386-16.539,26.533c-0.142,24.318-0.345,48.641-0.023,72.955
		c0.088,6.667-2.065,8.376-8.485,8.135C138.492,260.247,125.246,260.594,111.024,260.594z"/>
	<path fill="#FFFFFF" d="M133.538,277.984c4.725,0,9.475,0.308,14.168-0.081c5.466-0.453,7.94,1.214,8.723,7.096
		c3.709,27.842,17.471,49.518,40.704,65.447c39.711,27.226,96.096,17.612,124.629-21.456c9.897-13.551,16.216-28.525,17.794-45.249
		c0.472-4.999,2.927-5.87,7.067-5.773c10.579,0.247,21.164,0.553,31.741,0.411c4.95-0.066,6.641,1.543,6.593,6.601
		c-0.211,22.434-6.75,43.134-17.856,62.229c-23.272,40.015-58.567,63.495-104.267,68.168
		c-50.905,5.205-93.065-13.346-124.637-54.186c-17.136-22.167-26.027-47.42-27.243-75.453c-0.239-5.509,1.276-7.818,7.052-7.335
		c5.144,0.43,10.352,0.09,15.531,0.09C133.538,278.325,133.538,278.154,133.538,277.984z"/>
</g>
</svg>
